<?xml version="1.0" encoding="utf-8"?>
<!-- Generator: Adobe Illustrator 27.6.1, SVG Export Plug-In . SVG Version: 6.00 Build 0)  -->
<svg version="1.1" id="Layer_1" xmlns="http://www.w3.org/2000/svg" xmlns:xlink="http://www.w3.org/1999/xlink" x="0px" y="0px"
	 viewBox="0 0 141.7 127.6" style="enable-background:new 0 0 141.7 127.6;" xml:space="preserve">
<style type="text/css">
	.st0{fill:#A89D7B;stroke:#52241E;stroke-width:1.8653;stroke-linecap:round;stroke-miterlimit:10;}
	.st1{fill:#52241E;}
	.st2{fill:#EEE9DD;}
	.st3{fill:url(#SVGID_1_);}
	.st4{fill:#E8CA8E;}
	.st5{fill:#F0EADE;}
	.st6{fill:url(#SVGID_00000050623537720878983640000003998592145916434318_);}
	.st7{fill:#D9B698;}
	.st8{fill:none;stroke:#52241E;stroke-width:1.8653;stroke-linecap:round;stroke-miterlimit:10;}
	.st9{fill:#EDE9DD;}
	.st10{fill:#98593C;}
	.st11{fill:#D95168;}
	.st12{fill:#EC8287;}
</style>
<g>
	<g>
		<path class="st0" d="M115.8,49.3c17.1,8,29.5,49.3-7.5,46.2L115.8,49.3z"/>
		<g>
			<path class="st1" d="M124.6,83.7c0,5.1-2.6,12.9-9,12.2c-0.4-0.1-0.8-0.1-1.1-0.2c-0.1,0-0.1-0.2,0-0.2c5.8-2,8.7-5.9,9.9-11.8
				C124.5,83.6,124.6,83.6,124.6,83.7L124.6,83.7z"/>
		</g>
	</g>
	<g>
		<path class="st0" d="M26,49.3c-17.1,8-29.5,49.3,7.5,46.2L26,49.3z"/>
		<g>
			<path class="st1" d="M17.4,83.7c1.2,5.9,4.1,9.8,9.9,11.8c0.1,0,0.1,0.1,0.1,0.1c-0.3,0.2-0.8,0.2-1.2,0.3
				c-4.7,0.7-7.5-4-8.4-7.9c-0.3-1.4-0.6-2.9-0.6-4.3C17.2,83.6,17.3,83.6,17.4,83.7L17.4,83.7z"/>
		</g>
	</g>
	<path class="st2" d="M115.8,49.3c13.7-2.7-1.7-12.2-1.7-12.2c-7-4.2-10.1-5.5-10.1-5.5c2.6-0.8,4.7-2,5.5-2.8
		c0.5-0.5,0.7-1.3,0.3-1.8c-5.1-7-23.6-6.3-23.6-6.3c2-1.5,2.3-3,2.3-3.9c0-0.6-0.4-1.1-0.9-1.4c-4.8-2.2-16.7,1.8-16.7,1.8
		s-11.9-4-16.7-1.8c-0.5,0.3-0.9,0.8-0.9,1.4c0,0.9,0.3,2.4,2.3,3.9c0,0-18.4-0.7-23.6,6.3c-0.4,0.6-0.2,1.4,0.3,1.8
		c0.8,0.7,2.9,2,5.5,2.8c0,0-3,1.4-10.1,5.5c0,0-15.4,9.5-1.7,12.2c0,0-17.7,19.8-3,15.8c0,0-5.4,18,2.2,15.5c0,0-2.6,11,6.3,12.4
		c0,0,1.3,11,9.7,9.1c0,0,5.9,13.9,14.3,7.6c5.2,2.1,10.3,3.1,15.4,3.1s10.2-1,15.4-3.1c8.4,6.3,14.3-7.6,14.3-7.6
		c8.4,1.9,9.7-9.1,9.7-9.1c9-1.4,6.3-12.4,6.3-12.4c7.7,2.5,2.2-15.5,2.2-15.5C133.5,69.1,115.8,49.3,115.8,49.3z"/>
	<path class="st1" d="M79.4,68.1c-0.1-1.7-0.9-4.1-6.3-4.9c-0.7-0.1-1.5-0.2-2.3-0.2s-1.5,0-2.3,0.2c-5.3,0.8-6.2,3.2-6.3,4.9l0,0
		l0,0c0,1.8,3.3,7,8.3,7.1c0.1,0,0.1,0,0.2,0l0,0l0,0c0.1,0,0.1,0,0.2,0C76.1,75.2,79.4,69.9,79.4,68.1
		C79.4,68.2,79.4,68.2,79.4,68.1C79.4,68.2,79.4,68.1,79.4,68.1z"/>
	
		<radialGradient id="SVGID_1_" cx="3439.4019" cy="61.7852" r="16.0844" fx="3428.231" fy="62.531" gradientTransform="matrix(-1 0 0 -1 3490.8899 127.849)" gradientUnits="userSpaceOnUse">
		<stop  offset="0.3116" style="stop-color:#A86A42"/>
		<stop  offset="0.5839" style="stop-color:#A9734B"/>
		<stop  offset="0.6269" style="stop-color:#A9754D"/>
		<stop  offset="0.6886" style="stop-color:#A9754D"/>
	</radialGradient>
	<path class="st3" d="M62.2,64.6c1.3-2.1-2.9-23-21.6-8.2c0,0,1.5-0.2,2.5,0c-0.2,0.4-7.9,6.8-7.2,21.3c0,0,1.3-2.7,3.7-4.5
		c-0.1,0.1-1.7,9.4-0.4,14.8C39,88,42.3,74.3,62.2,64.6z"/>
	<g>
		<path class="st4" d="M51.1,38.1c4.2-2.4,10,0.5,10.5,5.3c-0.6-0.9-1.3-1.8-2-2.5C57.4,38.5,54.3,37.9,51.1,38.1L51.1,38.1z"/>
	</g>
	<g>
		<path class="st4" d="M65,27.8c5.3,1.1,8.2,7.6,5.2,12.2c0.2-1.2,0.3-2.4,0.2-3.6C70.2,32.8,67.9,29.9,65,27.8L65,27.8z"/>
	</g>
	<g>
		<path class="st4" d="M83.3,35.7c2,2.6,0.1,6.9-3.3,7.1C82.4,41,83.4,38.6,83.3,35.7L83.3,35.7z"/>
	</g>
	<ellipse class="st1" cx="55.7" cy="62.5" rx="4.3" ry="5.2"/>
	<ellipse class="st5" cx="57" cy="60" rx="0.9" ry="1.1"/>
	
		<radialGradient id="SVGID_00000098212488855217413330000005920449226538494377_" cx="90.7767" cy="61.7852" r="16.0844" fx="79.6058" fy="62.531" gradientTransform="matrix(1 0 0 -1 0 127.849)" gradientUnits="userSpaceOnUse">
		<stop  offset="0.3116" style="stop-color:#A86A42"/>
		<stop  offset="0.5839" style="stop-color:#A9734B"/>
		<stop  offset="0.6269" style="stop-color:#A9754D"/>
		<stop  offset="0.6886" style="stop-color:#A9754D"/>
	</radialGradient>
	<path style="fill:url(#SVGID_00000098212488855217413330000005920449226538494377_);" d="M80.1,64.6c-1.3-2.1,2.9-23,21.6-8.2
		c0,0-1.5-0.2-2.5,0c0.2,0.4,7.9,6.8,7.2,21.3c0,0-1.3-2.7-3.7-4.5c0.1,0.1,1.7,9.4,0.4,14.8C103.3,88,100,74.3,80.1,64.6z"/>
	<ellipse class="st1" cx="86.7" cy="62.5" rx="4.3" ry="5.2"/>
	<ellipse class="st5" cx="85.3" cy="60" rx="0.9" ry="1.1"/>
	<g>
		<path class="st1" d="M41,83.4C50.5,65,71.4,54.8,89.4,68.6c5.2,3.9,9.1,9.2,12,14.8c-3.5-5.3-7.7-10.1-12.8-13.7
			C70.7,57.2,52,67,41,83.4L41,83.4z"/>
	</g>
	<path class="st7" d="M103.1,97.8c-0.1-0.6,0.1-1.4-0.4-1.6c-0.2-0.1-0.5,0-0.8,0.1c-1.2,0.6-2.4,1.8-3.7,1.5
		c-0.5-0.1-1-0.4-1.5-0.6c-1.1-0.4-2.4,0-3.4,0.7c-1.1,0.7-2,1.7-2.6,2.8c-0.4,0.8-0.8,1.7-1.6,1.9c-0.3,0.1-0.7,0.1-1,0
		c-1.2-0.3-2.1-1.2-2.6-2.3c-0.5-1.1-0.6-2.3-0.6-3.5c-0.1-2.3,0.2-2.5,0.5-4.8c0.2-1.2,0.3-2.5,0.1-3.6c-0.7-2.9-2.9-5.1-5.3-5
		c-0.7,0-8.3,0-9.4,0s-8.7,0.1-9.4,0c-2.4-0.1-4.6,2.1-5.3,5c-0.3,1.2-0.1,2.4,0.1,3.6c0.3,2.3,0.6,2.5,0.5,4.8
		c0,1.2-0.2,2.4-0.6,3.5c-0.5,1.1-1.4,2.1-2.6,2.3c-0.3,0.1-0.7,0.1-1,0c-0.8-0.3-1.2-1.2-1.6-1.9c-0.6-1.1-1.5-2.1-2.6-2.8
		c-1-0.7-2.3-1.1-3.4-0.7c-0.5,0.2-0.9,0.5-1.5,0.6c-1.3,0.3-2.5-0.9-3.7-1.5c-0.2-0.1-0.5-0.2-0.8-0.1c-0.5,0.2-0.3,1-0.4,1.6
		c-0.2,1.3-4.3,2.6-3,3.5c2.6,1.6,5.6,0.8,5.6,0.8c0.7,1.4,3,5.5,4.5,6.8c2.1,1.9,4.4,2.7,6.5,2.4c1.1-0.1,3.3-1.7,3.3-1.7
		c7.7,3.2,15.3,3.3,15.4,3.2c0.1,0.1,7.7-0.1,15.4-3.2c0,0,2.3,1.5,3.3,1.7c2.2,0.3,4.4-0.5,6.5-2.4c1.4-1.3,3.8-5.4,4.5-6.8
		c0,0,3,0.8,5.6-0.8C107.4,100.5,103.3,99.2,103.1,97.8z"/>
	<path class="st8" d="M115.8,49.3c13.7-2.7-1.7-12.2-1.7-12.2c-7-4.2-10.1-5.5-10.1-5.5c2.6-0.8,4.7-2,5.5-2.8
		c0.5-0.5,0.7-1.3,0.3-1.8c-5.1-7-23.6-6.3-23.6-6.3c2-1.5,2.3-3,2.3-3.9c0-0.6-0.4-1.1-0.9-1.4c-4.8-2.2-16.7,1.8-16.7,1.8
		s-11.9-4-16.7-1.8c-0.5,0.3-0.9,0.8-0.9,1.4c0,0.9,0.3,2.4,2.3,3.9c0,0-18.4-0.7-23.6,6.3c-0.4,0.6-0.2,1.4,0.3,1.8
		c0.8,0.7,2.9,2,5.5,2.8c0,0-3,1.4-10.1,5.5c0,0-15.4,9.5-1.7,12.2c0,0-17.7,19.8-3,15.8c0,0-5.4,18,2.2,15.5c0,0-2.6,11,6.3,12.4
		c0,0,1.3,11,9.7,9.1c0,0,5.9,13.9,14.3,7.6c5.2,2.1,10.3,3.1,15.4,3.1s10.2-1,15.4-3.1c8.4,6.3,14.3-7.6,14.3-7.6
		c8.4,1.9,9.7-9.1,9.7-9.1c9-1.4,6.3-12.4,6.3-12.4c7.7,2.5,2.2-15.5,2.2-15.5C133.5,69.1,115.8,49.3,115.8,49.3z"/>
	<path class="st9" d="M80.8,94.9c-0.3-0.3-0.7-0.4-1.1-0.5c-0.7-0.2-1.5-0.3-2.2-0.3c-0.3,0-0.7,0-1,0.2S76,94.7,75.8,95
		c-0.5,0.7-1,1.4-1.7,2c-0.5,0.4-1,0.6-1.6,0.7c-0.4,0-2.9,0-3.3,0c-0.6,0-1.2-0.3-1.6-0.7c-0.7-0.5-1.2-1.3-1.7-2
		c-0.2-0.3-0.4-0.6-0.7-0.7c-0.3-0.1-0.6-0.2-1-0.2c-0.7,0-1.5,0.1-2.2,0.3c-0.4,0.1-0.8,0.2-1.1,0.5c-0.3,0.3-0.4,0.8-0.2,1.1
		c0.2,0.3,0.7,0.4,1,0.6c0.7,0.5,0.3,1.6,0.5,2.4c0.2,0.9,1,1.5,1.8,2c0.3,0.2,0.6,0.4,1,0.5c0.9,0.2,1.8-0.6,2.7-0.4
		c0.9,0.2,1.6,1.2,2.5,1.2c0.2,0,0.9,0,1.1,0c0.9-0.1,1.6-1.1,2.5-1.2c0.9-0.2,1.8,0.6,2.7,0.4c0.4-0.1,0.7-0.3,1-0.5
		c0.8-0.5,1.6-1.1,1.8-2c0.2-0.8-0.1-1.9,0.5-2.4c0.3-0.2,0.8-0.3,1-0.6C81.2,95.6,81,95.1,80.8,94.9z"/>
	<ellipse transform="matrix(0.3967 -0.918 0.918 0.3967 -14.9256 108.0223)" class="st10" cx="74.7" cy="65.4" rx="0.7" ry="2.6"/>
	<path class="st1" d="M82.9,83.6c-1.4-1.2-3.2-1.8-5-2.1c-0.1,0-0.1,0-0.2,0c-1.6-2.3-4.2-4.5-6.9-4.6l0,0h-0.1l0,0l0,0
		c-2.8,0.1-5.1,2.3-6.8,4.7c-0.1,0-0.1,0-0.2,0c-1.8,0.3-3.6,0.9-5,2.1c-1.1,1-1.9,2.2-2.3,3.5c0,0.1,0.1,0.2,0.2,0.1
		c0.8-1.5,2-2.6,3.5-3.3c0.7,1.7,3.4,7.2,8.7,8.4h0.1c0.1,0,0.2,0,0.2,0c0.2,0,0.4,0.1,0.6,0.1c0.1,0,0.3,0,0.4,0c0.2,0,0.4,0,0.6,0
		l0,0l0,0l0,0l0,0c0.2,0,0.4,0,0.6,0c0.1,0,0.3,0,0.4,0c0.2,0,0.4-0.1,0.6-0.1c0.1,0,0.2,0,0.2,0h0.1c5.3-1.2,8-6.7,8.7-8.4
		c1.5,0.7,2.8,1.8,3.5,3.3c0,0.1,0.2,0.1,0.2-0.1C84.9,85.7,84,84.5,82.9,83.6z"/>
	<path class="st11" d="M78.8,84.9c-1.4-2.3-4.8-2-7.4-0.1c-0.2,0.2-0.4,0.3-0.6,0.5c-0.2-0.2-0.4-0.3-0.6-0.5
		c-2.6-1.9-6-2.2-7.4,0.1c-0.9,1.5,0.8,3.4,3.3,5.3c1.6,1.2,3.3,1.8,4.7,1.7c1.4,0.1,3.1-0.5,4.7-1.7C78.1,88.3,79.8,86.4,78.8,84.9
		z"/>
	<ellipse transform="matrix(0.3967 -0.918 0.918 0.3967 -41.3006 117.5883)" class="st12" cx="68.8" cy="90.2" rx="0.6" ry="1.5"/>
</g>
</svg>
